<svg width="337" height="337" viewBox="0 0 337 337" fill="none" xmlns="http://www.w3.org/2000/svg">
<path d="M337 21.789C337 9.755 327.416 0 315.381 0H21.959C9.92601 0 0 9.755 0 21.789V315.211C0 327.245 9.92601 337 21.959 337H315.38C327.415 337 336.999 327.245 336.999 315.211L337 21.789Z" fill="#8080FF"/>
<path fill-rule="evenodd" clip-rule="evenodd" d="M175.353 58.014C173.071 58.132 170.954 59.151 168.581 58.926C166.112 58.692 163.923 58.03 162.153 56.37C159.553 53.932 159.88 50.201 162.868 48.154C166.53 45.643 172.274 45.689 175.821 48.258C179.157 50.671 179.259 54.1309 176.067 56.8219C175.678 57.1509 175.151 57.4 175.335 58.027L175.353 58.014Z" fill="white"/>
<path fill-rule="evenodd" clip-rule="evenodd" d="M158.632 215.319C160.153 216.005 161.629 216.801 163.205 217.342C164.83 217.899 165.93 217.555 165.646 215.575C164.798 209.644 165.306 203.681 165.269 197.731C165.253 195.153 165.425 192.573 165.55 189.996C165.614 188.672 165.247 188.483 164.023 189.245C161.08 191.077 160.714 192.602 162.828 195.145C163.133 195.512 163.307 195.869 163.307 196.312C163.31 198.681 163.293 201.051 163.319 203.42C163.327 204.239 163.016 204.76 162.11 204.433C157.517 202.78 153.203 200.819 151.07 196.244C149.566 193.017 150.33 190.177 152.576 187.62C155.202 184.632 158.44 182.282 162.305 180.848C164.65 179.977 165.919 178.859 165.685 176.273C165.415 173.279 165.507 170.238 165.705 167.231C165.832 165.305 164.986 164.429 163.171 163.754C158.501 162.016 153.927 160.033 150.2 156.798C142.42 150.042 144.057 140.649 153.731 136.524C157.096 135.09 160.535 133.79 164.007 132.596C165.552 132.063 166.14 131.368 166.128 129.798C166.067 122.33 166.027 114.859 166.222 107.394C166.331 103.164 166.423 98.933 166.527 94.703C166.564 93.144 165.943 92.767 164.369 92.8C162.273 92.842 160.361 93.294 158.729 94.462C156.078 96.36 156.855 100.691 160.64 101.931C164.587 103.222 164.902 105.504 164.607 108.603C164.439 110.384 164.578 112.192 164.566 113.986C164.56 114.742 164.578 115.526 163.312 115.136C156.746 113.113 150.515 110.578 145.283 106.167C138.436 100.395 139.657 90.995 147.379 86.315C151.847 83.608 156.807 81.989 162.168 81.772C163.926 81.701 164.377 81.163 164.34 79.603C164.236 75.152 164.354 70.698 164.277 66.247C164.251 64.725 164.638 64.325 166.259 64.918C168.091 65.59 170.046 65.597 171.948 65.052C173.511 64.604 173.994 65.106 173.969 66.587C173.895 70.967 174.011 75.349 173.913 79.729C173.879 81.223 174.376 81.718 175.98 81.738C180.98 81.801 185.735 83.05 190.38 84.658C192.61 85.43 192.646 86.631 192.194 88.728C191.077 93.922 186.475 92.661 183.022 93.207C179.522 93.759 175.953 92.879 172.413 92.701C171.116 92.634 170.706 92.929 170.737 94.027C170.964 101.773 171.198 109.516 171.409 117.261C171.507 120.849 171.612 124.437 171.605 128.025C171.602 129.454 172.11 129.654 173.352 129.025C174.439 128.477 175.587 128.025 176.637 127.425C178.348 126.447 179.65 125.202 179.582 123.122C179.516 121.072 178.077 119.776 176.318 119.351C173.144 118.584 172.845 116.708 173.018 114.207C173.176 111.92 173.026 109.614 172.976 107.316C172.956 106.348 173.074 105.739 174.382 106.277C180.051 108.604 185.454 111.194 190.046 115.268C196.03 120.576 194.542 130.351 187.985 134.45C183.663 137.152 178.798 138.867 173.97 140.593C172.502 141.119 171.917 141.749 172.029 143.238C172.288 146.743 171.963 150.263 172.367 153.777C172.504 154.963 173.012 155.517 174.109 155.986C178.118 157.703 181.995 159.635 185.138 162.61C190.105 167.308 189.384 175.677 183.646 179.537C180.878 181.398 177.811 182.781 174.705 184.062C173.574 184.529 172.994 185 173.039 186.247C173.279 192.845 173.467 199.443 173.594 206.041C173.647 208.761 173.494 211.482 173.463 214.203C173.459 214.664 173.117 215.288 173.766 215.545C174.354 215.776 174.725 215.224 175.127 214.92C178.604 212.306 179.065 209.448 176.251 206.161C174.881 204.561 175.455 202.875 175.434 201.227C175.422 200.31 176.274 200.688 176.764 201.028C180.424 203.556 183.428 206.491 183.154 211.122C182.9 215.47 179.904 218.008 175.903 219.508C174.088 220.19 173.499 220.781 173.184 222.768C172.484 227.2 170.907 231.511 169.676 235.92C168.533 235.604 168.668 234.738 168.487 234.138C167.424 230.619 166.44 227.08 165.436 223.546C164.823 221.385 163.956 220.397 161.811 218.958C160.426 218.028 158.693 217.277 158.636 215.315L158.632 215.319ZM165.715 152.243C165.854 151.945 165.961 151.822 165.963 151.695C165.986 149.977 166.061 148.257 165.979 146.545C165.931 145.533 166.657 144.082 165.504 143.615C164.483 143.201 163.191 144.077 162.055 144.491C161.848 144.567 161.679 144.737 161.495 144.867C159.168 146.504 159.101 148.296 161.415 149.929C162.69 150.83 164.018 151.694 165.715 152.243ZM172.608 174.916C172.815 174.999 173.019 175.08 173.225 175.162C174.535 174.137 176.012 173.158 176.106 171.355C176.174 170.023 175.127 169.151 173.995 168.471C173.156 167.969 172.573 167.982 172.599 169.161C172.637 171.078 172.608 172.998 172.608 174.916ZM177.805 84.513C177.946 85.307 178.532 85.547 179.307 85.535C179.919 85.525 180.387 85.289 180.41 84.673C180.439 83.858 179.871 83.524 179.084 83.514C178.39 83.507 177.914 83.823 177.805 84.513Z" fill="white"/>
<path fill-rule="evenodd" clip-rule="evenodd" d="M175.332 58.0262C176.577 58.3652 176.19 59.1462 175.937 59.9112C175.111 62.4032 171.878 64.2511 168.824 63.9691C165.074 63.6201 162.938 61.7082 162.57 58.2042C166.894 59.7642 171.191 60.8992 175.35 58.0142L175.332 58.0262Z" fill="white"/>
<path fill-rule="evenodd" clip-rule="evenodd" d="M116.888 74.7643C116.784 74.7143 116.677 74.6623 116.572 74.6123C116.624 74.5723 116.687 74.4923 116.723 74.5023C116.835 74.5323 116.936 74.5953 117.04 74.6463C116.992 74.6853 116.94 74.7253 116.888 74.7643Z" fill="white"/>
<path fill-rule="evenodd" clip-rule="evenodd" d="M124.195 81.1952C124.303 81.1562 124.412 81.1171 124.521 81.0771C124.471 81.1701 124.419 81.2652 124.37 81.3582C124.309 81.3072 124.25 81.2522 124.195 81.1952Z" fill="white"/>
<path d="M133.863 119.53C123.147 125.683 114.76 134.412 108.708 145.726C102.653 157.037 99.6278 170.136 99.6278 185.021C99.6278 199.905 102.653 213.053 108.708 224.463C114.761 235.879 123.147 244.661 133.863 250.807C144.58 256.963 156.786 260.037 170.477 260.037C188.935 260.037 203.916 254.878 215.426 244.556C226.934 234.241 233.985 220.248 236.565 202.583H204.184V175.494H272.883V201.987C270.694 218.061 264.992 232.849 255.762 246.342C246.535 259.841 234.524 270.603 219.744 278.642C204.957 286.679 188.533 290.699 170.477 290.699C151.027 290.699 133.266 286.187 117.192 277.152C101.119 268.126 88.3638 255.571 78.9378 239.495C69.5118 223.423 64.7988 205.262 64.7988 185.021C64.7988 164.779 69.5118 146.618 78.9378 130.542C88.3638 114.468 101.163 101.921 117.342 92.8857" fill="white"/>
</svg>
