<svg width="1148" height="124" viewBox="0 0 1148 124" fill="none" xmlns="http://www.w3.org/2000/svg">
<path d="M816.029 13.0281V122.132H807.562V34.8481L769.783 88.5861H766.525L728.584 34.8481V122.131H720.117V13.0281H723.373L768.154 76.8621L812.773 13.0281H816.029Z" fill="#8080FF"/>
<path d="M848.76 84.6779C849.739 103.078 863.416 116.106 881.166 116.106C891.588 116.106 900.381 112.036 907.383 103.73L912.594 109.104C904.778 118.223 893.541 123.76 881.004 123.76C858.693 124.248 839.805 105.196 840.293 82.8859C839.805 60.5759 858.367 41.3619 880.025 41.8499C899.404 41.8499 915.199 55.8549 915.199 76.8619C915.199 80.2809 915.037 82.8859 914.549 84.6779H848.76ZM906.733 77.3499C907.383 60.2509 894.844 49.3409 879.702 49.3409C871.722 49.3409 865.046 51.9459 859.347 57.3199C853.648 62.5309 850.228 69.2069 849.087 77.3489L906.733 77.3499Z" fill="#8080FF"/>
<path d="M1012.41 0V122.131H1004.6V106.172C998.735 117.083 986.196 123.76 972.518 123.76C950.534 123.76 933.436 105.522 933.436 82.886C933.436 59.926 950.045 41.85 972.518 41.85C986.034 41.85 998.247 48.364 1004.27 58.786V0.000976562L1012.41 0ZM973.332 49.504C955.256 49.504 941.902 63.834 941.902 82.723C941.902 101.451 955.256 116.106 973.332 116.106C989.615 116.106 1004.27 105.359 1004.27 82.886C1004.27 60.251 989.615 49.504 973.332 49.504Z" fill="#8080FF"/>
<path d="M1046.77 6.0249C1050.68 6.0249 1053.94 9.28188 1053.94 13.1899C1053.94 17.0979 1050.68 20.3549 1046.77 20.3549C1042.7 20.3549 1039.61 17.0979 1039.61 13.1899C1039.61 9.28188 1042.7 6.0249 1046.77 6.0249ZM1042.7 43.4789H1050.84V122.131H1042.7V43.4789Z" fill="#8080FF"/>
<path d="M1115.81 41.85C1129 41.85 1140.24 48.038 1147.57 57.971L1141.71 62.694C1135.03 53.901 1126.4 49.505 1115.81 49.505C1097.58 49.505 1083.57 64.323 1083.57 82.724C1083.57 101.452 1097.58 116.107 1115.65 116.107C1126.24 116.107 1134.87 111.711 1141.71 102.918L1147.57 107.64C1140.24 117.574 1128.84 123.762 1115.65 123.762C1093.5 124.25 1074.61 105.034 1075.1 82.725C1074.61 60.414 1093.5 41.362 1115.81 41.85Z" fill="#8080FF"/>
<path d="M207.959 87.2059H147.2C147.68 93.5559 150.037 98.6569 154.272 102.504C158.504 106.354 163.7 108.276 169.859 108.276C178.71 108.276 184.963 104.573 188.62 97.163H206.371C203.966 104.476 199.611 110.467 193.31 115.132C187.007 119.799 179.189 122.131 169.859 122.131C162.256 122.131 155.449 120.424 149.437 117.008C143.423 113.594 138.708 108.781 135.294 102.576C131.877 96.3699 130.17 89.1789 130.17 80.9999C130.17 72.8239 131.83 65.6299 135.149 59.4249C138.468 53.2189 143.133 48.4339 149.148 45.0659C155.16 41.6989 162.064 40.0139 169.858 40.0139C177.362 40.0139 184.048 41.6509 189.918 44.9199C195.786 48.1919 200.356 52.7859 203.629 58.7029C206.899 64.6199 208.535 71.4289 208.535 79.1229C208.536 82.1079 208.343 84.8019 207.959 87.2059ZM191.363 73.929C191.266 67.867 189.101 63.0109 184.869 59.3529C180.634 55.6979 175.391 53.869 169.138 53.869C163.46 53.869 158.603 55.6739 154.563 59.2809C150.522 62.8879 148.116 67.774 147.346 73.929H191.363Z" fill="#8080FF"/>
<path d="M236.748 118.739C231.791 116.48 227.872 113.4 224.986 109.503C222.099 105.607 220.559 101.255 220.367 96.442H237.397C237.685 99.811 239.295 102.626 242.232 104.884C245.166 107.146 248.846 108.276 253.271 108.276C257.89 108.276 261.473 107.388 264.024 105.607C266.572 103.827 267.848 101.543 267.848 98.752C267.848 95.771 266.428 93.5559 263.59 92.1119C260.751 90.6699 256.252 89.0819 250.097 87.3489C244.13 85.7139 239.273 84.1269 235.521 82.5859C231.768 81.0499 228.521 78.69 225.779 75.515C223.038 72.341 221.667 68.1559 221.667 62.9589C221.667 58.7269 222.916 54.855 225.419 51.343C227.92 47.831 231.503 45.0649 236.171 43.0439C240.836 41.0229 246.2 40.0129 252.263 40.0129C261.305 40.0129 268.593 42.2989 274.126 46.8679C279.658 51.4379 282.616 57.6689 283.002 65.5569H266.55C266.261 61.9969 264.819 59.1599 262.22 57.0419C259.622 54.9259 256.11 53.8659 251.685 53.8659C247.356 53.8659 244.037 54.6849 241.728 56.3199C239.418 57.9579 238.264 60.122 238.264 62.814C238.264 64.931 239.033 66.7099 240.573 68.1539C242.111 69.5969 243.987 70.729 246.201 71.546C248.414 72.364 251.685 73.3999 256.014 74.6489C261.787 76.1879 266.525 77.7529 270.231 79.3389C273.933 80.9259 277.132 83.261 279.828 86.338C282.52 89.419 283.916 93.5059 284.014 98.6049C284.014 103.128 282.762 107.17 280.261 110.729C277.758 114.289 274.223 117.079 269.654 119.099C265.084 121.12 259.718 122.129 253.563 122.129C247.306 122.131 241.702 120.999 236.748 118.739Z" fill="#8080FF"/>
<path d="M320.957 56.0319V100.05C320.957 103.032 321.654 105.173 323.05 106.472C324.444 107.771 326.825 108.42 330.195 108.42H340.297V122.131H327.309C319.899 122.131 314.223 120.399 310.28 116.935C306.334 113.471 304.362 107.843 304.362 100.05V56.0319H294.982V42.6099H304.362V22.8389H320.959V42.6099H340.298V56.0319H320.957Z" fill="#8080FF"/>
<path d="M356.316 29.0449C354.295 27.0239 353.285 24.5239 353.285 21.5399C353.285 18.5589 354.296 16.0559 356.316 14.0349C358.336 12.0149 360.837 11.0049 363.82 11.0049C366.706 11.0049 369.16 12.0159 371.18 14.0349C373.201 16.0559 374.21 18.5579 374.21 21.5399C374.21 24.5229 373.2 27.0239 371.18 29.0449C369.16 31.0659 366.705 32.0749 363.82 32.0749C360.836 32.0749 358.335 31.0659 356.316 29.0449ZM371.902 42.6109V122.132H355.45V42.6109H371.902Z" fill="#8080FF"/>
<path d="M407.692 117.008C401.63 113.594 396.869 108.781 393.405 102.576C389.941 96.3699 388.209 89.1789 388.209 80.9999C388.209 72.9189 389.988 65.7529 393.549 59.4959C397.108 53.2439 401.967 48.4329 408.125 45.0649C414.281 41.6979 421.161 40.0129 428.763 40.0129C436.363 40.0129 443.242 41.6979 449.401 45.0649C455.557 48.4329 460.417 53.2439 463.977 59.4959C467.536 65.7529 469.317 72.9189 469.317 80.9999C469.317 89.0819 467.488 96.2499 463.833 102.504C460.176 108.759 455.196 113.594 448.896 117.008C442.593 120.424 435.641 122.131 428.042 122.131C420.536 122.131 413.753 120.424 407.692 117.008ZM439.947 104.813C443.65 102.792 446.659 99.7619 448.968 95.7209C451.277 91.6809 452.431 86.7729 452.431 80.9999C452.431 75.2269 451.325 70.3459 449.113 66.3519C446.898 62.3619 443.965 59.3529 440.309 57.3319C436.651 55.3109 432.707 54.3019 428.474 54.3019C424.24 54.3019 420.321 55.3119 416.713 57.3319C413.105 59.3529 410.24 62.3609 408.125 66.3519C406.008 70.3459 404.95 75.2279 404.95 80.9999C404.95 89.5639 407.138 96.1789 411.516 100.845C415.893 105.512 421.402 107.844 428.04 107.844C432.274 107.844 436.241 106.833 439.947 104.813Z" fill="#8080FF"/>
<path d="M542.555 45.208C547.508 47.807 551.38 51.656 554.172 56.754C556.962 61.856 558.358 68.011 558.358 75.227V122.131H542.049V77.681C542.049 70.562 540.268 65.102 536.709 61.3C533.148 57.5 528.289 55.6 522.133 55.6C515.975 55.6 511.093 57.5 507.485 61.3C503.878 65.102 502.073 70.562 502.073 77.681V122.131H485.621V42.61H502.073V51.703C504.765 48.432 508.207 45.882 512.392 44.055C516.578 42.227 521.026 41.313 525.742 41.313C531.994 41.313 537.598 42.611 542.555 45.208Z" fill="#8080FF"/>
<path d="M578.779 59.4959C582.098 53.3409 586.619 48.5539 592.346 45.1379C598.069 41.7229 604.395 40.0139 611.323 40.0139C617.577 40.0139 623.036 41.2409 627.704 43.6949C632.37 46.1479 636.097 49.2039 638.888 52.8589V41.3129H655.486V120.833H638.888V108.998C636.097 112.751 632.298 115.878 627.488 118.379C622.675 120.879 617.191 122.131 611.035 122.131C604.203 122.131 597.951 120.377 592.273 116.864C586.595 113.352 582.1 108.446 578.78 102.143C575.461 95.8419 573.801 88.6989 573.801 80.7109C573.799 72.7279 575.459 65.6539 578.779 59.4959ZM635.496 66.713C633.234 62.672 630.275 59.594 626.621 57.476C622.963 55.362 619.019 54.3019 614.787 54.3019C610.551 54.3019 606.607 55.3369 602.953 57.4039C599.295 59.4749 596.336 62.5059 594.076 66.4969C591.814 70.4899 590.685 75.228 590.685 80.713C590.685 86.198 591.814 91.0089 594.076 95.1439C596.336 99.2839 599.32 102.433 603.023 104.598C606.726 106.762 610.648 107.845 614.787 107.845C619.019 107.845 622.963 106.786 626.621 104.669C630.275 102.555 633.234 99.451 635.496 95.361C637.756 91.272 638.887 86.4849 638.887 81.0009C638.887 75.5169 637.756 70.753 635.496 66.713Z" fill="#8080FF"/>
<path d="M693.584 15.334V122.131H677.131V15.334H693.584Z" fill="#8080FF"/>
<path d="M38.041 27.8478C32.139 31.2368 27.52 36.0438 24.185 42.2768C20.85 48.5058 19.184 55.7218 19.184 63.9218C19.184 72.1198 20.85 79.3618 24.185 85.6478C27.52 91.9348 32.139 96.7738 38.041 100.159C43.943 103.55 50.668 105.243 58.209 105.243C68.376 105.243 76.628 102.401 82.968 96.7158C89.307 91.0338 93.19 83.3258 94.611 73.5968H76.776V58.6748H114.616V73.2688C113.411 82.1228 110.27 90.2668 105.186 97.7008C100.104 105.138 93.488 111.064 85.346 115.492C77.201 119.92 68.155 122.134 58.209 122.134C47.495 122.134 37.712 119.649 28.858 114.672C20.004 109.7 12.979 102.785 7.788 93.9298C2.596 85.0758 0 75.0738 0 63.9238C0 52.7738 2.596 42.7718 7.788 33.9158C12.979 25.0618 20.029 18.1498 28.941 13.1738" fill="#8080FF"/>
</svg>
